<svg width="140" height="25" viewBox="0 0 140 25" fill="none" xmlns="http://www.w3.org/2000/svg">
<path d="M53.385 2.00671V5.76346H42.6281V10.1269H52.5216V13.6269H42.6281V18.6204H53.6417V22.4004H38.1247V2.00671H53.385Z" fill="white"/>
<path d="M68.2719 7.44351C68.0152 7.00017 67.6652 6.62682 67.2686 6.30015C66.8719 5.97348 66.4285 5.74014 65.9152 5.55347C65.4252 5.3668 64.8885 5.27347 64.3518 5.27347C63.3251 5.27347 62.4618 5.46014 61.7851 5.85681C61.0851 6.25348 60.5251 6.76683 60.0817 7.44351C59.6151 8.09686 59.3117 8.84353 59.1251 9.68355C58.9384 10.5469 58.8217 11.3869 58.8217 12.2969C58.8217 13.1603 58.9384 14.0003 59.1251 14.817C59.3117 15.6337 59.6151 16.357 60.0817 17.0104C60.5251 17.6404 61.0851 18.1771 61.7851 18.5737C62.4851 18.9704 63.3485 19.1571 64.3518 19.1571C65.7052 19.1571 66.7785 18.7137 67.5719 17.897C68.3419 17.057 68.7853 15.9603 68.9719 14.5603H73.312C73.1953 15.8437 72.892 17.0104 72.4253 18.0371C71.9586 19.0637 71.3286 19.9504 70.5353 20.6738C69.7419 21.3971 68.8553 21.9338 67.8052 22.3305C66.7552 22.7038 65.5885 22.8905 64.3518 22.8905C62.7885 22.8905 61.3884 22.6105 60.1284 22.0505C58.8917 21.5138 57.8417 20.7671 56.955 19.8104C56.115 18.8537 55.4383 17.7337 54.995 16.4503C54.5283 15.1903 54.3183 13.7903 54.3183 12.2969C54.3183 10.7802 54.5283 9.35688 54.995 8.05019C55.4617 6.76683 56.115 5.60014 56.955 4.64346C57.8417 3.68677 58.8917 2.91675 60.1284 2.35674C61.3651 1.79673 62.7651 1.51672 64.3518 1.51672C65.4719 1.51672 66.5452 1.68006 67.5252 2.00673C68.5286 2.33341 69.4386 2.80008 70.2086 3.4301C71.002 4.03678 71.6553 4.80679 72.1686 5.71681C72.6587 6.62682 73.0087 7.65352 73.1253 8.84354H68.7852C68.7152 8.35353 68.5286 7.86352 68.2719 7.44351Z" fill="white"/>
<path d="M81.3855 2.00671L86.1689 16.0303H86.2156L90.7424 2.00671H97.0425V22.4004H92.8424V7.95683H92.7957L87.8023 22.4004H84.3489L79.3321 8.0735H79.2855V22.4004H75.0854V2.00671H81.3855Z" fill="white"/>
<path d="M114.8 22.4004L111.346 8.51684H111.299L107.893 22.4004H103.343L97.9759 2.00671H102.456L105.676 15.8903H105.723L109.269 2.00671H113.47L116.946 16.077H117.016L120.353 2.00671H124.74L119.256 22.4004H114.8Z" fill="white"/>
<path d="M140 2.00671V5.76346H130.153V10.4769H138.693V13.977H130.153V22.4004H125.673V2.00671H140Z" fill="white"/>
<path d="M0.11392 13.4403H10.1475V10.7102H0.11392C-0.0494165 11.6202 -0.0260827 12.5536 0.11392 13.4403Z" fill="white"/>
<path d="M33.5046 14.3736C32.4546 19.9737 27.5078 24.1271 21.8377 24.1271C20.181 24.1271 18.4076 23.6838 16.9143 23.0538C15.3509 23.8005 13.6242 24.1271 11.8742 24.1271C6.18071 24.1271 1.23394 20.0437 0.230591 14.4203L7.53407 14.397C8.35075 16.217 10.1941 17.3837 12.1775 17.3837C14.3242 17.3837 16.3076 15.937 17.0309 13.9536C17.7076 15.9837 19.691 17.3837 21.861 17.3837C23.8911 17.3837 25.7811 16.1937 26.5511 14.397L33.5046 14.3736Z" fill="white"/>
<path d="M33.5046 9.75353C32.4546 4.15342 27.5078 0 21.8377 0C20.181 0 18.4076 0.42001 16.9143 1.07336C15.3509 0.326674 13.6242 0 11.8742 0C6.18071 0 1.23394 4.06008 0.230591 9.70686H7.53407C8.35075 7.88682 10.1941 6.72014 12.1775 6.72014C14.3242 6.72014 16.3076 8.19016 17.0309 10.1735C17.7076 8.12016 19.691 6.72014 21.861 6.72014C23.8911 6.72014 25.7811 7.91016 26.5511 9.73019L33.5046 9.75353Z" fill="white"/>
</svg>
